<?xml version="1.0" encoding="UTF-8"?>
<svg enable-background="new 0 0 512 512" version="1.1" viewBox="0 0 512 512" xml:space="preserve" xmlns="http://www.w3.org/2000/svg" xmlns:cc="http://creativecommons.org/ns#" xmlns:dc="http://purl.org/dc/elements/1.1/" xmlns:rdf="http://www.w3.org/1999/02/22-rdf-syntax-ns#"><metadata><rdf:RDF><cc:Work rdf:about=""><dc:format>image/svg+xml</dc:format><dc:type rdf:resource="http://purl.org/dc/dcmitype/StillImage"/></cc:Work></rdf:RDF></metadata><path d="m386.23 0-33.748 33.748c-24.209 24.209-33.691 57.636-28.504 89.088-32.806-9.952-68.318-10.787-102.44-1.4043-46.896 12.901-84.648 50.23-98.529 97.422l-63.076 214.46c-6.339 21.556-0.40948 44.817 15.479 60.705 15.887 15.887 39.15 21.819 60.705 15.48l145.92-42.918v-11.15l-143.36 41.94c-10.513 3.091-35.453 8.6479-56.03-11.668-13.69-13.516-17.47-29.246-14.379-39.76l69.044-230.74c14.252-46.725 48.586-74.959 89.661-82.539 6.245-1.616 39.994-16.542 103.7 1.5966 19.773 10.97 65.605 43.538 75.809 55.51 8.6415 6.5194 13.994 16.75 15.827 19.035l7.1299-2.7119c-4.4704-7.6699-9.5089-15.05-15.107-22.066l5.6543-5.6543c35.793-35.793 44.251-100.38 0-144.63zm0 23.143 23.262 21.092c31.993 29.009 34.662 106.35-4.3398 130.17l-20.549-16.333-44.414-29.77c-14.704-27.18 3.1943-61.225 27.117-85.151z" fill="#fffff0"/></svg>
