<?xml version="1.0" encoding="UTF-8" standalone="no"?>
<!-- Generator: Adobe Illustrator 19.0.0, SVG Export Plug-In . SVG Version: 6.00 Build 0)  -->

<svg
   xmlns:dc="http://purl.org/dc/elements/1.1/"
   xmlns:cc="http://creativecommons.org/ns#"
   xmlns:rdf="http://www.w3.org/1999/02/22-rdf-syntax-ns#"
   xmlns:svg="http://www.w3.org/2000/svg"
   xmlns="http://www.w3.org/2000/svg"
   xmlns:sodipodi="http://sodipodi.sourceforge.net/DTD/sodipodi-0.dtd"
   xmlns:inkscape="http://www.inkscape.org/namespaces/inkscape"
   version="1.1"
   id="Layer_1"
   x="0px"
   y="0px"
   viewBox="0 0 512 512"
   style="enable-background:new 0 0 512 512;"
   xml:space="preserve"
   inkscape:version="0.91 r13725"
   sodipodi:docname="strawberry-svgrepo-com.svg"><metadata
     id="metadata61"><rdf:RDF><cc:Work
         rdf:about=""><dc:format>image/svg+xml</dc:format><dc:type
           rdf:resource="http://purl.org/dc/dcmitype/StillImage" /></cc:Work></rdf:RDF></metadata><defs
     id="defs59" /><sodipodi:namedview
     pagecolor="#ffffff"
     bordercolor="#666666"
     borderopacity="1"
     objecttolerance="10"
     gridtolerance="10"
     guidetolerance="10"
     inkscape:pageopacity="0"
     inkscape:pageshadow="2"
     inkscape:window-width="1920"
     inkscape:window-height="1027"
     id="namedview57"
     showgrid="false"
     inkscape:zoom="0.4609375"
     inkscape:cx="41.079128"
     inkscape:cy="241.23415"
     inkscape:window-x="1440"
     inkscape:window-y="0"
     inkscape:window-maximized="1"
     inkscape:current-layer="Layer_1" /><path
     style="fill:#ffffff;fill-opacity:1"
     d="m 386.22656,0 -33.74804,33.748047 c -24.209,24.209 -33.69091,57.635891 -28.50391,89.087893 -32.806,-9.952 -68.31841,-10.7873 -102.44141,-1.4043 -46.896,12.901 -84.64829,50.22988 -98.52929,97.42188 L 59.927734,433.31836 c -6.339,21.556 -0.409484,44.81708 15.478516,60.70508 15.887,15.887 39.15008,21.81947 60.70508,15.48047 l 145.92187,-42.91797 0,-11.15049 -143.36447,41.93988 c -10.513,3.091 -35.45274,8.64788 -56.030058,-11.6683 C 68.948931,472.19102 65.16913,456.46074 68.26013,445.94674 l 69.04422,-230.7357 c 14.25199,-46.72495 48.58561,-74.95881 89.66083,-82.53907 6.245,-1.616 39.99375,-16.54248 103.69616,1.59657 19.77278,10.97041 65.60523,43.5384 75.80921,55.5102 8.64154,6.51942 13.99438,16.74993 15.82732,19.03468 l 7.12986,-2.71186 c -4.47039,-7.6699 -9.50893,-15.0504 -15.10742,-22.0664 l 5.6543,-5.6543 c 35.793,-35.793 44.251,-100.37986 0,-144.63086 z m 0,23.142578 23.26172,21.091797 c 31.99319,29.009223 34.66185,106.353675 -4.33984,130.169925 l -20.5491,-16.33263 -44.41392,-29.77009 c -14.70367,-27.18024 3.19431,-61.225189 27.11731,-85.151189 z"
     id="path25"
     inkscape:connector-curvature="0"
     sodipodi:nodetypes="csccccsccccsccccccccscccsccccc" /><g
     id="g27"
     style="fill:#ffffff;fill-opacity:1" /><g
     id="g29"
     style="fill:#ffffff;fill-opacity:1" /><g
     id="g31"
     style="fill:#ffffff;fill-opacity:1" /><g
     id="g33"
     style="fill:#ffffff;fill-opacity:1" /><g
     id="g35"
     style="fill:#ffffff;fill-opacity:1" /><g
     id="g37"
     style="fill:#ffffff;fill-opacity:1" /><g
     id="g39"
     style="fill:#ffffff;fill-opacity:1" /><g
     id="g41"
     style="fill:#ffffff;fill-opacity:1" /><g
     id="g43"
     style="fill:#ffffff;fill-opacity:1" /><g
     id="g45"
     style="fill:#ffffff;fill-opacity:1" /><g
     id="g47"
     style="fill:#ffffff;fill-opacity:1" /><g
     id="g49"
     style="fill:#ffffff;fill-opacity:1" /><g
     id="g51"
     style="fill:#ffffff;fill-opacity:1" /><g
     id="g53"
     style="fill:#ffffff;fill-opacity:1" /><g
     id="g55"
     style="fill:#ffffff;fill-opacity:1" /></svg>